<?xml version="1.0" standalone="no"?>
<!DOCTYPE svg PUBLIC "-//W3C//DTD SVG 20010904//EN"
 "http://www.w3.org/TR/2001/REC-SVG-20010904/DTD/svg10.dtd">
<svg version="1.0" xmlns="http://www.w3.org/2000/svg"
 width="1024.000000pt" height="1024.000000pt" viewBox="0 0 1024.000000 1024.000000"
 preserveAspectRatio="xMidYMid meet">

<g transform="translate(0.000000,1024.000000) scale(0.100000,-0.100000)"
fill="#000000" stroke="none">
<path d="M5019 6261 c-66 -26 -106 -59 -150 -123 -45 -66 -66 -75 -111 -52
-18 9 -63 19 -100 22 -203 14 -363 -175 -313 -370 9 -35 12 -65 7 -70 -5 -5
-61 -33 -124 -62 -461 -212 -630 -367 -698 -641 -26 -103 -37 -263 -21 -293
35 -66 342 19 515 142 88 63 192 178 250 277 75 128 76 129 85 129 5 0 12 -62
15 -137 26 -524 95 -754 267 -893 82 -65 365 -229 397 -230 16 0 17 271 1 303
-6 12 -38 47 -70 77 -48 46 -59 62 -59 88 0 36 29 72 59 72 10 0 45 -20 77
-45 31 -25 62 -45 69 -45 13 0 48 23 93 62 38 33 74 36 102 8 39 -39 27 -75
-50 -149 l-70 -67 0 -152 c0 -119 3 -152 13 -152 8 0 67 32 132 70 274 163
368 261 430 445 48 141 94 422 95 570 0 106 10 187 23 182 5 -1 38 -48 72
-102 170 -271 409 -428 701 -460 84 -9 88 -3 81 133 -9 178 -62 337 -150 451
-84 109 -310 260 -550 367 -67 30 -127 62 -134 70 -8 11 -8 26 -1 52 27 96
-15 217 -102 295 -84 76 -205 99 -299 57 -57 -26 -65 -25 -93 11 -67 89 -122
139 -175 159 -66 25 -152 25 -214 1z"/>
</g>
</svg>
